<svg xmlns="http://www.w3.org/2000/svg" width="53" height="53" viewBox="0 0 53 53">
  <g id="Group_43" data-name="Group 43" transform="translate(-9204 -4842)">
    <rect id="Rectangle_16" data-name="Rectangle 16" width="53" height="53" transform="translate(9204 4842)" fill="none"/>
    <g id="Group_42" data-name="Group 42" transform="translate(61.494 0.448)">
      <path id="Path_76" data-name="Path 76" d="M855.289,2608.928q6.133,0,12.267,0a1.679,1.679,0,0,1,1.841,2.047q-.683,7.171-1.371,14.341-.334,3.507-.652,7.015a4.862,4.862,0,0,1-4.69,4.37q-7.4.056-14.794,0a4.9,4.9,0,0,1-4.73-4.559c-.221-2.76-.526-5.513-.791-8.27q-.341-3.559-.673-7.119-.277-2.932-.555-5.863a1.671,1.671,0,0,1,1.776-1.965Q849.1,2608.925,855.289,2608.928Zm2.384,21.272h.014c-.007.14-.017.28-.022.42a1.666,1.666,0,1,0,3.317.19c.151-2.291.291-4.582.44-6.873.194-2.99.4-5.98.584-8.97a1.628,1.628,0,0,0-.706-1.5,1.559,1.559,0,0,0-1.687-.151,1.713,1.713,0,0,0-.973,1.564q-.167,2.887-.348,5.772Q857.988,2625.427,857.673,2630.2Zm-4.786.184c-.153-2.342-.3-4.545-.44-6.749-.185-2.956-.358-5.912-.545-8.867a1.709,1.709,0,0,0-1.472-1.614,1.616,1.616,0,0,0-1.7.962,2.9,2.9,0,0,0-.152,1.174c.182,3.149.388,6.3.591,9.444.135,2.1.266,4.2.419,6.294a1.666,1.666,0,0,0,1.54,1.475,1.694,1.694,0,0,0,1.708-1.212A4.779,4.779,0,0,0,852.887,2630.384Z" transform="translate(8313.87 2251.542)" fill="#8b8b8b"/>
      <path id="Path_77" data-name="Path 77" d="M837.111,2524.121a15.687,15.687,0,0,1,.158-1.749,4.146,4.146,0,0,1,4.07-3.3q2.552-.011,5.1,0a4.186,4.186,0,0,1,4.192,4.17c0,.276,0,.552,0,.881h.612q3.421,0,6.841,0a1.669,1.669,0,0,1,1.812,1.788c0,.789.005,1.578,0,2.368a1.647,1.647,0,0,1-1.708,1.733q-14.288.005-28.575,0a1.65,1.65,0,0,1-1.721-1.72q-.01-1.21,0-2.42a1.648,1.648,0,0,1,1.744-1.748c2.3-.005,4.6,0,6.894,0Zm3.419-.038h6.738c0-.282.014-.527,0-.771a.844.844,0,0,0-.869-.872q-2.5-.026-5,0a.843.843,0,0,0-.863.876C840.517,2523.561,840.53,2523.806,840.53,2524.083Z" transform="translate(8325.106 2328.769)" fill="#8b8b8b"/>
    </g>
  </g>
</svg>
