<svg width="24" height="24" viewBox="0 0 24 24" fill="none" xmlns="http://www.w3.org/2000/svg">
<path d="M19.5476 13.1315C19.3942 13.0633 19.3601 12.9838 19.3601 12.8304C19.3715 12.1373 19.3658 11.4386 19.3658 10.7455C19.3658 10.5921 19.3658 10.4331 19.3658 10.2797C19.3658 9.47869 19.3885 8.67768 19.2295 7.88236C18.4625 4.08184 15.0029 1.57657 11.1626 2.05945C9.10043 2.32077 7.45298 3.32061 6.22023 4.98511C5.22039 6.33716 4.79432 7.87668 4.81705 9.55254C4.82841 10.6603 4.81705 11.7681 4.81705 12.8759C4.81705 12.9724 4.82273 13.052 4.69207 13.1088C3.43659 13.6541 2.78897 14.8926 3.06165 16.2105C3.31729 17.4547 4.43643 18.3465 5.77144 18.3522C6.31112 18.3579 6.8508 18.3636 7.39049 18.3466C7.58364 18.3409 7.65181 18.4034 7.69726 18.5851C8.20854 20.5678 9.97529 21.9653 12.009 21.9994C14.0485 22.0334 15.8607 20.7041 16.4401 18.7442C16.5538 18.3522 16.5538 18.3579 16.9628 18.3522C17.5706 18.3465 18.1842 18.3977 18.792 18.3295C20.0077 18.1875 20.9735 17.2104 21.1496 15.989C21.3257 14.796 20.661 13.6144 19.5476 13.1315ZM14.6052 18.5056C14.2076 19.4827 13.1793 20.1644 12.0943 20.1644C11.0092 20.1644 9.97529 19.477 9.58331 18.5056C9.53218 18.375 9.54354 18.3409 9.69125 18.3409C10.4979 18.3466 11.3103 18.3466 12.117 18.3466C12.9066 18.3466 13.6906 18.3466 14.4802 18.3466C14.6109 18.3409 14.6734 18.3409 14.6052 18.5056ZM18.5648 16.5173C18.4739 16.5287 18.383 16.5287 18.2864 16.5287C16.2243 16.5287 14.1564 16.5287 12.0943 16.5287C10.0094 16.5287 7.92449 16.5287 5.83392 16.5287C5.28856 16.5287 4.92498 16.2446 4.83977 15.7617C4.74887 15.2448 5.14086 14.7449 5.66918 14.7051C6.32816 14.6597 6.64061 14.3245 6.64061 13.6712C6.64061 12.2226 6.64061 10.7739 6.64061 9.33098C6.64061 6.6496 8.40168 4.47383 11.0206 3.90574C13.969 3.26948 16.9855 5.343 17.4627 8.33115C17.5138 8.66632 17.5422 9.00717 17.5422 9.34803C17.5422 10.808 17.5422 12.2737 17.5422 13.7337C17.5422 14.3074 17.8944 14.6824 18.4682 14.7051C18.9625 14.7278 19.3431 15.1028 19.3601 15.5856C19.3828 16.0401 19.0363 16.4491 18.5648 16.5173Z" fill="#FC6A57"/>
</svg>
